<svg xmlns="http://www.w3.org/2000/svg" xmlns:svg="http://www.w3.org/2000/svg" id="svg8" width="928" height="640" version="1.1" viewBox="0 0 245.533 169.333"><metadata id="metadata5"/><g id="layer1"><path style="fill:none;stroke:#000;stroke-width:2.91042;stroke-linecap:round;stroke-miterlimit:4;stroke-dasharray:2.91042,5.82083;stroke-dashoffset:0;paint-order:markers stroke fill;stop-color:#000" id="rect830" d="M 31.564453,6.75 C 17.700096,6.75 6.75,17.700096 6.75,31.564453 V 137.76758 c 0,13.86436 10.950597,24.8164 24.814453,24.8164 H 213.96875 c 13.86386,0 24.81445,-10.95204 24.81445,-24.8164 V 31.564453 C 238.7832,17.700095 227.83311,6.75 213.96875,6.75 Z"/><g style="font-style:normal;font-variant:normal;font-weight:400;font-stretch:normal;font-size:21.9872px;line-height:1.25;font-family:BPreplay;-inkscape-font-specification:'BPreplay, Normal';font-variant-ligatures:normal;font-variant-caps:normal;font-variant-numeric:normal;font-variant-east-asian:normal;text-align:center;letter-spacing:0;word-spacing:0;text-anchor:middle;stroke-width:.549682" id="text836" aria-label="draw here"><path id="path838" d="m 78.777267,140.79643 c -0.681603,-1.14333 -1.978848,-1.67102 -3.034233,-1.67102 -2.396605,0 -4.683274,2.63846 -4.683274,6.64013 0,3.91372 2.330643,6.57417 4.661287,6.57417 1.187308,0 2.374617,-0.6816 3.254105,-2.02282 v 0.50571 c 0,1.38519 0.94545,1.56109 1.539104,1.56109 1.121347,0 1.693015,-0.57167 1.693015,-1.62705 v -14.90733 c 0,-1.14333 -0.571668,-1.75897 -1.693015,-1.75897 -1.121347,0 -1.736989,0.61564 -1.736989,1.75897 z m -2.19872,8.26719 c -1.385193,0 -2.066796,-1.60506 -2.066796,-3.27609 0,-1.69302 0.747564,-3.47398 2.132758,-3.47398 1.09936,0 2.19872,1.25327 2.19872,3.38603 0,2.13276 -1.165322,3.36404 -2.264682,3.36404 z" style="font-style:normal;font-variant:normal;font-weight:400;font-stretch:normal;font-size:21.9872px;font-family:BPreplay;-inkscape-font-specification:'BPreplay, Normal';font-variant-ligatures:normal;font-variant-caps:normal;font-variant-numeric:normal;font-variant-east-asian:normal;stroke-width:.549682"/><path id="path840" d="m 83.967964,150.40484 c 0,1.12135 0.571667,1.69301 1.693014,1.69301 1.165322,0 1.693015,-0.57166 1.693015,-1.69301 v -6.13443 c 0,-0.96744 0.967437,-1.64904 1.80295,-1.64904 0.219872,0 0.351795,0.044 0.505706,0.066 0.219872,0.044 0.505705,0.066 0.813526,0.066 1.011411,0 1.736989,-0.81352 1.736989,-1.715 0,-0.90147 -0.659616,-1.86891 -2.418592,-1.86891 -0.923462,0 -2.35263,0.90148 -2.726413,1.62705 -0.04397,-1.03339 -0.725577,-1.45115 -1.407181,-1.45115 -1.121347,0 -1.693014,0.57167 -1.693014,1.75897 z" style="font-style:normal;font-variant:normal;font-weight:400;font-stretch:normal;font-size:21.9872px;font-family:BPreplay;-inkscape-font-specification:'BPreplay, Normal';font-variant-ligatures:normal;font-variant-caps:normal;font-variant-numeric:normal;font-variant-east-asian:normal;stroke-width:.549682"/><path id="path842" d="m 94.533502,139.89496 c -0.70359,0.28583 -1.143334,0.76955 -1.143334,1.38519 0,1.12135 0.791539,1.3852 1.627052,1.3852 0.79154,0 1.517117,-0.28584 2.418592,-0.28584 1.231284,0 2.682438,0.79154 2.682438,2.08879 v 1.07737 c -0.791538,-0.57167 -1.95686,-0.90148 -3.144169,-0.90148 -2.814361,0 -4.463401,2.0668 -4.463401,4.04565 0,1.82494 1.429168,3.56193 3.935708,3.56193 1.231284,0 2.550516,-0.50571 3.583912,-1.60507 v 0.41776 c 0.066,0.90147 1.01141,1.18731 1.3852,1.18731 1.07737,0 1.715,-0.81353 1.715,-1.69302 v -6.57417 c 0,-3.36404 -2.77039,-4.68328 -5.562764,-4.68328 -1.011412,0 -2.066797,0.19789 -3.034234,0.59366 z m 1.429168,8.35513 c 0,-0.70359 0.923462,-1.01141 1.846925,-1.01141 0.879488,0 1.846925,0.32981 1.846925,0.90148 0,0.76955 -1.055386,1.16532 -2.04481,1.16532 -0.813526,0 -1.64904,-0.35179 -1.64904,-1.05539 z" style="font-style:normal;font-variant:normal;font-weight:400;font-stretch:normal;font-size:21.9872px;font-family:BPreplay;-inkscape-font-specification:'BPreplay, Normal';font-variant-ligatures:normal;font-variant-caps:normal;font-variant-numeric:normal;font-variant-east-asian:normal;stroke-width:.549682"/><path id="path844" d="m 108.52939,140.55457 c -0.3518,-0.8575 -0.87949,-1.27525 -1.75898,-1.27525 -1.16532,0 -1.69302,0.54968 -1.69302,1.75897 0,0.26385 0.37379,1.45116 3.1002,9.58642 0.32981,0.94545 0.98942,1.47314 1.91289,1.47314 0.90147,0 1.60506,-0.5057 1.86891,-1.42916 l 1.60506,-5.58475 c 0.8575,2.52853 0.87949,3.10019 1.69302,5.54077 0.32981,0.96744 0.92346,1.45116 1.75897,1.45116 0.76956,0 1.45116,-0.43975 1.75898,-1.3852 2.41859,-7.07987 2.88032,-8.66295 2.99026,-9.05872 l -0.022,0.15391 c 0.10994,-0.28584 0.15391,-0.52769 0.15391,-0.79154 0,-1.16532 -0.37378,-1.73699 -1.62705,-1.73699 -0.87949,0 -1.47314,0.41776 -1.75898,1.29724 l -1.47314,6.09046 c -0.81353,-2.52853 -0.70359,-3.43 -1.5391,-5.93654 -0.24186,-0.92347 -1.23129,-1.40719 -1.93488,-1.40719 -0.76955,0 -1.49513,0.46174 -1.80295,1.34122 l -1.67102,6.20039 z" style="font-style:normal;font-variant:normal;font-weight:400;font-stretch:normal;font-size:21.9872px;font-family:BPreplay;-inkscape-font-specification:'BPreplay, Normal';font-variant-ligatures:normal;font-variant-caps:normal;font-variant-numeric:normal;font-variant-east-asian:normal;stroke-width:.549682"/><path id="path846" d="m 130.38604,150.40484 c 0,1.12135 0.54968,1.69301 1.64904,1.69301 1.16532,0 1.715,-0.57166 1.715,-1.69301 v -6.13443 c 0,-1.29724 0.8575,-1.95686 1.73699,-1.95686 0.79154,0 1.62705,0.63763 1.62705,1.95686 v 6.13443 c 0,1.12135 0.59365,1.69301 1.69301,1.69301 1.14334,0 1.715,-0.57166 1.715,-1.69301 v -6.75007 c 0,-3.23212 -2.02282,-4.35347 -3.71583,-4.35347 -1.31923,0 -2.28667,0.70359 -3.05622,1.58308 v -4.81519 c 0,-1.14334 -0.54968,-1.75898 -1.715,-1.75898 -1.09936,0 -1.64904,0.61564 -1.64904,1.75898 z" style="font-style:normal;font-variant:normal;font-weight:400;font-stretch:normal;font-size:21.9872px;font-family:BPreplay;-inkscape-font-specification:'BPreplay, Normal';font-variant-ligatures:normal;font-variant-caps:normal;font-variant-numeric:normal;font-variant-east-asian:normal;stroke-width:.549682"/><path id="path848" d="m 147.59068,139.10342 c -3.67186,0 -5.69469,3.18814 -5.69469,6.5302 0,3.62789 2.15475,6.70609 6.0245,6.70609 2.02282,0 3.64987,-0.74756 4.74923,-2.11077 0.28584,-0.30782 0.37378,-0.61564 0.37378,-1.01141 0,-1.01141 -0.54968,-1.45115 -1.25327,-1.45115 -1.16532,0 -1.86891,1.3632 -3.56192,1.3632 -0.94545,0 -2.90231,-0.6816 -2.90231,-2.66045 h 5.03507 c 1.69301,0 2.72641,0 2.72641,-1.69301 0,-3.40802 -1.95686,-5.6727 -5.4968,-5.6727 z m -2.08878,5.07904 c 0,-1.3632 1.12134,-2.08878 2.13275,-2.08878 0.96744,0 1.93488,0.6816 1.93488,2.08878 z" style="font-style:normal;font-variant:normal;font-weight:400;font-stretch:normal;font-size:21.9872px;font-family:BPreplay;-inkscape-font-specification:'BPreplay, Normal';font-variant-ligatures:normal;font-variant-caps:normal;font-variant-numeric:normal;font-variant-east-asian:normal;stroke-width:.549682"/><path id="path850" d="m 154.73927,150.40484 c 0,1.12135 0.57166,1.69301 1.69301,1.69301 1.16532,0 1.69302,-0.57166 1.69302,-1.69301 v -6.13443 c 0,-0.96744 0.96743,-1.64904 1.80295,-1.64904 0.21987,0 0.35179,0.044 0.5057,0.066 0.21987,0.044 0.50571,0.066 0.81353,0.066 1.01141,0 1.73699,-0.81352 1.73699,-1.715 0,-0.90147 -0.65962,-1.86891 -2.41859,-1.86891 -0.92347,0 -2.35264,0.90148 -2.72642,1.62705 -0.044,-1.03339 -0.72558,-1.45115 -1.40718,-1.45115 -1.12135,0 -1.69301,0.57167 -1.69301,1.75897 z" style="font-style:normal;font-variant:normal;font-weight:400;font-stretch:normal;font-size:21.9872px;font-family:BPreplay;-inkscape-font-specification:'BPreplay, Normal';font-variant-ligatures:normal;font-variant-caps:normal;font-variant-numeric:normal;font-variant-east-asian:normal;stroke-width:.549682"/><path id="path852" d="m 168.97667,139.10342 c -3.67187,0 -5.69469,3.18814 -5.69469,6.5302 0,3.62789 2.15475,6.70609 6.02449,6.70609 2.02283,0 3.64988,-0.74756 4.74924,-2.11077 0.28583,-0.30782 0.37378,-0.61564 0.37378,-1.01141 0,-1.01141 -0.54968,-1.45115 -1.25327,-1.45115 -1.16532,0 -1.86891,1.3632 -3.56193,1.3632 -0.94545,0 -2.90231,-0.6816 -2.90231,-2.66045 h 5.03507 c 1.69302,0 2.72642,0 2.72642,-1.69301 0,-3.40802 -1.95687,-5.6727 -5.4968,-5.6727 z m -2.08879,5.07904 c 0,-1.3632 1.12135,-2.08878 2.13276,-2.08878 0.96744,0 1.93487,0.6816 1.93487,2.08878 z" style="font-style:normal;font-variant:normal;font-weight:400;font-stretch:normal;font-size:21.9872px;font-family:BPreplay;-inkscape-font-specification:'BPreplay, Normal';font-variant-ligatures:normal;font-variant-caps:normal;font-variant-numeric:normal;font-variant-east-asian:normal;stroke-width:.549682"/></g></g></svg>