<svg xmlns="http://www.w3.org/2000/svg" xmlns:svg="http://www.w3.org/2000/svg" id="svg2" width="64" height="64" version="1.1"><defs id="defs4"><linearGradient id="linearGradient3781"><stop style="stop-color:#6d4c41;stop-opacity:1" id="stop3783" offset="0"/><stop style="stop-color:#844700;stop-opacity:1" id="stop3785" offset="1"/></linearGradient></defs><metadata id="metadata7"/><g id="layer1" transform="translate(0,-988.36218)"><path style="fill:#b71c1c;fill-opacity:1;stroke:#fff;stroke-width:0;stroke-miterlimit:4;stroke-dasharray:none;stroke-dashoffset:0" id="path2987-2-5" d="m 45,31.5 a 17.5,17.5 0 1 1 -35,0 17.5,17.5 0 1 1 35,0 z" transform="matrix(0.54632433,0,0,0.54632433,-3.3042581,982.71364)"/><path style="fill:#33691e;fill-opacity:1;stroke:#fff;stroke-width:0;stroke-miterlimit:4;stroke-dasharray:none;stroke-dashoffset:0" id="path2987-29-6" d="m 45,31.5 a 17.5,17.5 0 1 1 -35,0 17.5,17.5 0 1 1 35,0 z" transform="matrix(0.54632433,0,0,0.54632433,16.976081,982.71364)"/><path style="fill:#01579b;fill-opacity:1;stroke:#fff;stroke-width:0;stroke-miterlimit:4;stroke-dasharray:none;stroke-dashoffset:0" id="path2987-29-3-6" d="m 45,31.5 a 17.5,17.5 0 1 1 -35,0 17.5,17.5 0 1 1 35,0 z" transform="matrix(0.54632433,0,0,0.54632433,37.25642,982.71364)"/><path style="fill:#cfd8dc;fill-opacity:1;stroke:#fff;stroke-width:0;stroke-miterlimit:4;stroke-dasharray:none;stroke-dashoffset:0" id="path2987-2-5-8" d="m 45,31.5 a 17.5,17.5 0 1 1 -35,0 17.5,17.5 0 1 1 35,0 z" transform="matrix(0.54632433,0,0,0.54632433,6.9760794,1003.153)"/><path style="fill:#37474f;fill-opacity:1;stroke:#fff;stroke-width:0;stroke-miterlimit:4;stroke-dasharray:none;stroke-dashoffset:0" id="path2987-2-5-89" d="m 45,31.5 a 17.5,17.5 0 1 1 -35,0 17.5,17.5 0 1 1 35,0 z" transform="matrix(0.54632433,0,0,0.54632433,26.976082,1003.153)"/><path style="fill:#48e3e3;fill-opacity:1;stroke:#fff;stroke-width:0;stroke-miterlimit:4;stroke-dasharray:none;stroke-dashoffset:0" id="path2987-2-5-1" d="m 45,31.5 a 17.5,17.5 0 1 1 -35,0 17.5,17.5 0 1 1 35,0 z" transform="matrix(0.54632433,0,0,0.54632433,-3.3042581,1023.5923)"/><path style="fill:#cc96e1;fill-opacity:1;stroke:#fff;stroke-width:0;stroke-miterlimit:4;stroke-dasharray:none;stroke-dashoffset:0" id="path2987-29-6-5" d="m 45,31.5 a 17.5,17.5 0 1 1 -35,0 17.5,17.5 0 1 1 35,0 z" transform="matrix(0.54632433,0,0,0.54632433,16.976081,1023.5923)"/><path style="fill:#fea864;fill-opacity:1;stroke:#fff;stroke-width:0;stroke-miterlimit:4;stroke-dasharray:none;stroke-dashoffset:0" id="path2987-29-3-6-8" d="m 45,31.5 a 17.5,17.5 0 1 1 -35,0 17.5,17.5 0 1 1 35,0 z" transform="matrix(0.54632433,0,0,0.54632433,37.25642,1023.5923)"/><flowRoot id="flowRoot4097" transform="translate(0.54046176,986.33065)" xml:space="preserve" style="font-size:20px;font-style:normal;font-variant:normal;font-weight:400;font-stretch:normal;text-align:center;line-height:125%;letter-spacing:0;word-spacing:0;text-anchor:middle;fill:#000;fill-opacity:1;stroke:none;font-family:georgia;-inkscape-font-specification:georgia"><flowRegion id="flowRegion4099"><rect id="rect4101" width="52.5" height="26.786" x="-15" y="6.143"/></flowRegion><flowPara id="flowPara4103" style="font-size:10px;fill:#fff">g<flowSpan style="font-size:10px;baseline-shift:sub;fill:#fff" id="flowSpan4105">1</flowSpan></flowPara></flowRoot><flowRoot id="flowRoot4097-6" transform="translate(20.801394,986.33065)" xml:space="preserve" style="font-size:20px;font-style:normal;font-variant:normal;font-weight:400;font-stretch:normal;text-align:center;line-height:125%;letter-spacing:0;word-spacing:0;text-anchor:middle;fill:#000;fill-opacity:1;stroke:none;font-family:georgia;-inkscape-font-specification:georgia"><flowRegion id="flowRegion4099-3"><rect id="rect4101-9" width="52.5" height="26.786" x="-15" y="6.143"/></flowRegion><flowPara id="flowPara4103-4" style="font-size:10px;fill:#fff">g<flowSpan style="font-size:65.00091553%;baseline-shift:sub" id="flowSpan4170">2</flowSpan></flowPara></flowRoot><flowRoot id="flowRoot4097-6-3" transform="translate(41.096015,985.83541)" xml:space="preserve" style="font-size:20px;font-style:normal;font-variant:normal;font-weight:400;font-stretch:normal;text-align:center;line-height:125%;letter-spacing:0;word-spacing:0;text-anchor:middle;fill:#000;fill-opacity:1;stroke:none;font-family:georgia;-inkscape-font-specification:georgia"><flowRegion id="flowRegion4099-3-8"><rect id="rect4101-9-2" width="52.5" height="26.786" x="-15" y="6.143"/></flowRegion><flowPara id="flowPara4103-4-3" style="font-size:10px;fill:#fff">g<flowSpan style="font-size:65.00091553%;baseline-shift:sub" id="flowSpan4172">3</flowSpan></flowPara></flowRoot><flowRoot id="flowRoot4097-6-3-4" transform="translate(10.761719,1006.2748)" xml:space="preserve" style="font-size:20px;font-style:normal;font-variant:normal;font-weight:400;font-stretch:normal;text-align:center;line-height:125%;letter-spacing:0;word-spacing:0;text-anchor:middle;fill:#000;fill-opacity:1;stroke:none;font-family:georgia;-inkscape-font-specification:georgia"><flowRegion id="flowRegion4099-3-8-8"><rect id="rect4101-9-2-5" width="52.5" height="26.786" x="-15" y="6.143"/></flowRegion><flowPara id="flowPara4103-4-3-1" style="font-size:10px;fill:#fff">g<flowSpan style="font-size:65.00091553%;baseline-shift:sub" id="flowSpan4264">4</flowSpan></flowPara></flowRoot><flowRoot id="flowRoot4097-6-3-2" transform="translate(30.787112,1006.2748)" xml:space="preserve" style="font-size:20px;font-style:normal;font-variant:normal;font-weight:400;font-stretch:normal;text-align:center;line-height:125%;letter-spacing:0;word-spacing:0;text-anchor:middle;fill:#000;fill-opacity:1;stroke:none;font-family:georgia;-inkscape-font-specification:georgia"><flowRegion id="flowRegion4099-3-8-81"><rect id="rect4101-9-2-6" width="52.5" height="26.786" x="-15" y="6.143"/></flowRegion><flowPara id="flowPara4103-4-3-4" style="font-size:10px;fill:#fff">g<flowSpan style="font-size:65.00091553%;baseline-shift:sub" id="flowSpan4266">5</flowSpan></flowPara></flowRoot><flowRoot id="flowRoot4097-6-3-7" transform="translate(0.50201151,1027.2093)" xml:space="preserve" style="font-size:20px;font-style:normal;font-variant:normal;font-weight:400;font-stretch:normal;text-align:center;line-height:125%;letter-spacing:0;word-spacing:0;text-anchor:middle;fill:#000;fill-opacity:1;stroke:none;font-family:georgia;-inkscape-font-specification:georgia"><flowRegion id="flowRegion4099-3-8-7"><rect id="rect4101-9-2-9" width="52.5" height="26.786" x="-15" y="6.143"/></flowRegion><flowPara id="flowPara4103-4-3-6" style="font-size:10px;fill:#fff">g<flowSpan style="font-size:65.00091553%;baseline-shift:sub" id="flowSpan4268">6</flowSpan></flowPara></flowRoot><flowRoot id="flowRoot4097-6-3-1" transform="translate(20.645874,1026.7141)" xml:space="preserve" style="font-size:20px;font-style:normal;font-variant:normal;font-weight:400;font-stretch:normal;text-align:center;line-height:125%;letter-spacing:0;word-spacing:0;text-anchor:middle;fill:#000;fill-opacity:1;stroke:none;font-family:georgia;-inkscape-font-specification:georgia"><flowRegion id="flowRegion4099-3-8-9"><rect id="rect4101-9-2-2" width="52.5" height="26.786" x="-15" y="6.143"/></flowRegion><flowPara id="flowPara4103-4-3-63" style="font-size:10px;fill:#fff">g<flowSpan style="font-size:65.00091553%;baseline-shift:sub" id="flowSpan4270">7</flowSpan></flowPara></flowRoot><flowRoot id="flowRoot4097-6-3-5" transform="translate(41.091254,1027.2093)" xml:space="preserve" style="font-size:20px;font-style:normal;font-variant:normal;font-weight:400;font-stretch:normal;text-align:center;line-height:125%;letter-spacing:0;word-spacing:0;text-anchor:middle;fill:#000;fill-opacity:1;stroke:none;font-family:georgia;-inkscape-font-specification:georgia"><flowRegion id="flowRegion4099-3-8-97"><rect id="rect4101-9-2-0" width="52.5" height="26.786" x="-15" y="6.143"/></flowRegion><flowPara id="flowPara4103-4-3-2" style="font-size:10px;fill:#fff">g<flowSpan style="font-size:65.00091553%;baseline-shift:sub" id="flowSpan4272">8</flowSpan></flowPara></flowRoot></g></svg>